General
Unique ID                                : 232461414880181313354895243274812197832 (0xAEE270A2BDCBE197A880341465A50BC8)
Complete name                            : 12012 - Cyclone [NTSC DVD 480i PCM 2.0 MPEG-2 REMUX-SEKAI].mkv
Format                                   : Matroska
Format version                           : Version 4
File size                                : 312 MiB
Duration                                 : 4 min 50 s
Overall bit rate mode                    : Variable
Overall bit rate                         : 9 017 kb/s
Frame rate                               : 29.970 FPS
Title                                    : 12012 - Cyclone [NTSC DVD 480i PCM 2.0 MPEG-2 REMUX-SEKAI]
Encoded date                             : 2026-01-16 14:19:23 UTC
Writing application                      : mkvmerge v97.0 ('You Don't Have A Clue') 64-bit
Writing library                          : libebml v1.4.5 + libmatroska v1.7.1
Website                                  : https://sekai-archivist.blogspot.com/

Video
ID                                       : 1
ID in the original source medium         : 224 (0xE0)
Format                                   : MPEG Video
Format version                           : Version 2
Format profile                           : Main@Main
Format settings                          : CustomMatrix / BVOP
Format settings, BVOP                    : Yes
Format settings, Matrix                  : Custom
Format settings, GOP                     : M=3, N=12
Format settings, picture structure       : Frame
Codec ID                                 : V_MPEG2
Codec ID/Info                            : MPEG 1 or 2 Video
Duration                                 : 4 min 50 s
Bit rate mode                            : Variable
Bit rate                                 : 7 478 kb/s
Maximum bit rate                         : 8 200 kb/s
Width                                    : 720 pixels
Height                                   : 480 pixels
Display aspect ratio                     : 4:3
Frame rate mode                          : Constant
Frame rate                               : 29.970 (30000/1001) FPS
Standard                                 : Component
Color space                              : YUV
Chroma subsampling                       : 4:2:0
Bit depth                                : 8 bits
Scan type                                : Interlaced
Scan order                               : Top Field First
Compression mode                         : Lossy
Bits/(Pixel*Frame)                       : 0.722
Time code of first frame                 : 01:14:59:03
Time code source                         : Group of pictures header
GOP, Open/Closed                         : Open
GOP, Open/Closed of first frame          : Closed
Stream size                              : 259 MiB (83%)
Language                                 : Japanese
Default                                  : Yes
Forced                                   : No
Color primaries                          : BT.601 NTSC
Transfer characteristics                 : BT.601
Matrix coefficients                      : BT.601
Original source medium                   : DVD-Video

Audio
ID                                       : 2
ID in the original source medium         : 189 (0xBD)160 (0xA0)
Format                                   : PCM
Format settings                          : Little / Signed
Codec ID                                 : A_PCM/INT/LIT
Duration                                 : 4 min 50 s
Bit rate mode                            : Constant
Bit rate                                 : 1 536 kb/s
Channel(s)                               : 2 channels
Sampling rate                            : 48.0 kHz
Frame rate                               : 25.003 FPS (1920 SPF)
Bit depth                                : 16 bits
Stream size                              : 53.2 MiB (17%)
Language                                 : Japanese
Default                                  : Yes
Forced                                   : No
Original source medium                   : DVD-Video


